<svg width="22" height="22" viewBox="0 0 22 22" fill="none" xmlns="http://www.w3.org/2000/svg">
<g clip-path="url(#clip0_1526_11487)">
<path d="M5.75128 0H5.19879C5.1283 0 5.06144 0.0148133 4.99667 0.0358618C4.67305 0.140816 4.43384 0.486316 4.43384 0.900763V1.28108V2.25454V2.761C4.43384 2.85511 4.44952 2.94402 4.47226 3.02915C4.56964 3.39484 4.85622 3.66176 5.19879 3.66176H5.75128C6.17384 3.66176 6.51624 3.25853 6.51624 2.761V2.25454V1.28108V0.900763C6.51624 0.403239 6.17384 0 5.75128 0Z" fill="#8FB2E5"/>
<path d="M16.6258 0H16.0733C15.6508 0 15.3083 0.403239 15.3083 0.900763V1.28108V2.25454V2.761C15.3083 3.25853 15.6508 3.66176 16.0733 3.66176H16.6258C17.0484 3.66176 17.3908 3.25853 17.3908 2.761V2.25454V1.28108V0.900763C17.3906 0.403239 17.0482 0 16.6258 0Z" fill="#8FB2E5"/>
<path d="M19.4479 2.25453H18.0799V2.76099C18.0799 3.63779 17.4275 4.35106 16.6257 4.35106H16.0732C15.2713 4.35106 14.6189 3.63779 14.6189 2.76099V2.25453H7.20545V2.76099C7.20545 3.63779 6.55302 4.35106 5.75119 4.35106H5.1987C4.39684 4.35106 3.74444 3.63779 3.74444 2.76099V2.25453H2.55249C1.79323 2.25453 1.17749 2.83182 1.17749 3.54354V20.711C1.17749 21.4241 1.7932 22 2.55249 22H19.4477C20.2076 22 20.8226 21.4239 20.8226 20.711V3.54372C20.8228 2.832 20.2078 2.25453 19.4479 2.25453ZM19.0215 20.1079L2.92867 20.1017V6.26111H19.0215V20.1079Z" fill="#8FB2E5"/>
<path d="M12.7236 9.59648H16.9559C17.3233 9.59648 17.6204 9.22961 17.6204 8.7762C17.6204 8.32279 17.3232 7.95592 16.9559 7.95592H12.7236C12.3562 7.95592 12.0591 8.32279 12.0591 8.7762C12.0591 9.22943 12.3562 9.59648 12.7236 9.59648Z" fill="#8FB2E5"/>
<path d="M12.7236 12.5595H16.9559C17.3233 12.5595 17.6204 12.1926 17.6204 11.7392C17.6204 11.2858 17.3232 10.9189 16.9559 10.9189H12.7236C12.3562 10.9189 12.0591 11.2858 12.0591 11.7392C12.0591 12.1926 12.3562 12.5595 12.7236 12.5595Z" fill="#8FB2E5"/>
<path d="M12.7236 15.5224H16.9559C17.3233 15.5224 17.6204 15.1555 17.6204 14.7022C17.6204 14.2488 17.3232 13.8819 16.9559 13.8819H12.7236C12.3562 13.8819 12.0591 14.2488 12.0591 14.7022C12.0591 15.1555 12.3562 15.5224 12.7236 15.5224Z" fill="#8FB2E5"/>
<path d="M12.7236 18.4856H16.9559C17.3233 18.4856 17.6204 18.1187 17.6204 17.6653C17.6204 17.2119 17.3232 16.845 16.9559 16.845H12.7236C12.3562 16.845 12.0591 17.2119 12.0591 17.6653C12.0591 18.1187 12.3562 18.4856 12.7236 18.4856Z" fill="#8FB2E5"/>
<path d="M5.22725 9.59648H9.4596C9.82697 9.59648 10.1241 9.22961 10.1241 8.7762C10.1241 8.32279 9.8268 7.95592 9.4596 7.95592H5.22725C4.85984 7.95592 4.56274 8.32279 4.56274 8.7762C4.56278 9.22943 4.85984 9.59648 5.22725 9.59648Z" fill="#8FB2E5"/>
<path d="M5.22725 12.5595H9.4596C9.82697 12.5595 10.1241 12.1926 10.1241 11.7392C10.1241 11.2858 9.8268 10.9189 9.4596 10.9189H5.22725C4.85984 10.9189 4.56274 11.2858 4.56274 11.7392C4.56278 12.1926 4.85984 12.5595 5.22725 12.5595Z" fill="#8FB2E5"/>
<path d="M5.22725 15.5224H9.4596C9.82697 15.5224 10.1241 15.1555 10.1241 14.7022C10.1241 14.2488 9.8268 13.8819 9.4596 13.8819H5.22725C4.85984 13.8819 4.56274 14.2488 4.56274 14.7022C4.56274 15.1555 4.85984 15.5224 5.22725 15.5224Z" fill="#8FB2E5"/>
<path d="M5.22725 18.4856H9.4596C9.82697 18.4856 10.1241 18.1187 10.1241 17.6653C10.1241 17.2119 9.8268 16.845 9.4596 16.845H5.22725C4.85984 16.845 4.56274 17.2119 4.56274 17.6653C4.56278 18.1187 4.85984 18.4856 5.22725 18.4856Z" fill="#8FB2E5"/>
</g>
<defs>
<clipPath id="clip0_1526_11487">
<rect width="22" height="22" fill="white"/>
</clipPath>
</defs>
</svg>
