<svg width="30" height="30" viewBox="0 0 30 30" fill="none" xmlns="http://www.w3.org/2000/svg">
<path d="M11.9887 25.5257V21.8456C11.9886 20.9096 12.7517 20.149 13.6972 20.1427H17.1605C18.1105 20.1427 18.8806 20.9051 18.8806 21.8456V25.5371C18.8804 26.3318 19.5211 26.9814 20.3236 27H22.6325C24.9341 27 26.8 25.1528 26.8 22.8742V12.4054C26.7877 11.509 26.3626 10.6672 25.6456 10.1196L17.7493 3.82236C16.3659 2.72588 14.3994 2.72588 13.0161 3.82236L5.15443 10.1311C4.43471 10.6764 4.00886 11.5196 4 12.4168V22.8742C4 25.1528 5.86585 27 8.16749 27H10.4764C11.2988 27 11.9656 26.3399 11.9656 25.5257" 
stroke="#000" stroke-width="1.5" stroke-linecap="round" stroke-linejoin="round"/>
</svg>
