<svg width="30" height="30" viewBox="0 0 30 30" fill="none" xmlns="http://www.w3.org/2000/svg">
<path fill-rule="evenodd" clip-rule="evenodd" d="M16.3803 5.22126L18.6646 9.78469C18.8885 10.2327 19.3206 10.5433 19.8217 10.6152L24.9317 11.3508C26.1942 11.533 26.6966 13.0632 25.7829 13.9399L22.0877 17.4906C21.7246 17.8397 21.5593 18.3416 21.6452 18.8345L22.5172 23.8473C22.732 25.0873 21.4122 26.0334 20.2837 25.4467L15.7165 23.0784C15.2688 22.846 14.7325 22.846 14.2835 23.0784L9.71626 25.4467C8.58779 26.0334 7.26799 25.0873 7.48405 23.8473L8.35481 18.8345C8.44071 18.3416 8.27541 17.8397 7.91227 17.4906L4.2171 13.9399C3.30339 13.0632 3.8058 11.533 5.06833 11.3508L10.1783 10.6152C10.6794 10.5433 11.1128 10.2327 11.3367 9.78469L13.6197 5.22126C14.1846 4.09291 15.8154 4.09291 16.3803 5.22126Z" stroke="#999999" stroke-width="1.5" stroke-linecap="round" stroke-linejoin="round"/>
</svg>
